<?xml version="1.0" encoding="UTF-8"?>
<svg id="Layer_1" data-name="Layer 1" xmlns="http://www.w3.org/2000/svg" viewBox="0 0 112.61 97.12">
  <defs>
    <style>
      .cls-1 {
        fill: #f7f7f7;
      }
    </style>
  </defs>
  <path class="cls-1" d="m75.25,78.48c-.02-10.32,8.32-18.7,18.64-18.72,10.32-.02,18.7,8.32,18.72,18.64.02,10.32-8.32,18.7-18.64,18.72-.02,0-.03,0-.05,0-10.3,0-18.65-8.34-18.67-18.64Z"/>
  <path class="cls-1" d="m95.13,8.75C95.12,3.92,99.03,0,103.86,0c4.83,0,8.74,3.9,8.75,8.73,0,4.83-3.9,8.74-8.73,8.75,0,0-.01,0-.02,0-4.82,0-8.73-3.91-8.73-8.73h0Z"/>
  <path class="cls-1" d="m75.25,8.75C75.24,3.92,79.15,0,83.98,0s8.74,3.9,8.75,8.73-3.9,8.74-8.73,8.75c0,0,0,0-.01,0-4.82,0-8.73-3.91-8.74-8.73Z"/>
  <path class="cls-1" d="m95.13,28.61c0-4.83,3.91-8.74,8.74-8.74,4.83,0,8.74,3.91,8.74,8.74,0,4.83-3.91,8.74-8.74,8.74,0,0,0,0,0,0-4.82,0-8.73-3.91-8.73-8.73,0,0,0,0,0-.01Z"/>
  <path class="cls-1" d="m75.25,28.61c0-4.83,3.91-8.74,8.74-8.74,4.83,0,8.74,3.91,8.74,8.74,0,4.83-3.91,8.74-8.74,8.74h0c-4.82,0-8.73-3.9-8.74-8.72,0,0,0-.01,0-.02Z"/>
  <path class="cls-1" d="m95.13,48.48c0-4.83,3.91-8.74,8.74-8.74,4.83,0,8.74,3.91,8.74,8.74,0,4.83-3.91,8.74-8.74,8.74,0,0,0,0,0,0-4.82,0-8.73-3.91-8.73-8.73,0,0,0,0,0-.01Z"/>
  <path class="cls-1" d="m75.25,48.48c0-4.83,3.91-8.74,8.74-8.74,4.83,0,8.74,3.91,8.74,8.74,0,4.83-3.91,8.74-8.74,8.74h0c-4.82,0-8.73-3.9-8.74-8.72,0,0,0-.01,0-.02Z"/>
  <path class="cls-1" d="m56.23,68.34c0-4.3,3.48-7.78,7.78-7.78s7.78,3.48,7.78,7.78-3.48,7.78-7.78,7.78h0c-4.3,0-7.78-3.48-7.78-7.78Z"/>
  <path class="cls-1" d="m37.91,68.34c0-3.44,2.79-6.23,6.23-6.23s6.23,2.79,6.23,6.23c0,3.44-2.79,6.23-6.23,6.23,0,0,0,0,0,0-3.44,0-6.22-2.78-6.22-6.22,0,0,0,0,0-.01Z"/>
  <path class="cls-1" d="m56.23,88.2c0-4.3,3.48-7.78,7.78-7.78s7.78,3.48,7.78,7.78-3.48,7.78-7.78,7.78h0c-4.3,0-7.78-3.48-7.78-7.78Z"/>
  <path class="cls-1" d="m37.91,88.2c0-3.44,2.79-6.23,6.23-6.23s6.23,2.79,6.23,6.23c0,3.44-2.79,6.23-6.23,6.23,0,0,0,0,0,0-3.43,0-6.21-2.77-6.22-6.2,0-.01,0-.02,0-.03Z"/>
  <path class="cls-1" d="m19.33,68.34c0-2.67,2.16-4.83,4.83-4.83,2.67,0,4.83,2.16,4.83,4.83s-2.16,4.83-4.83,4.83-4.83-2.16-4.83-4.83h0Z"/>
  <path class="cls-1" d="m19.33,88.2c0-2.67,2.17-4.83,4.84-4.82,2.67,0,4.83,2.17,4.82,4.84,0,2.66-2.17,4.82-4.83,4.82-2.67,0-4.83-2.16-4.83-4.83,0,0,0,0,0-.01Z"/>
  <path class="cls-1" d="m56.23,8.75c0-4.3,3.48-7.79,7.78-7.8s7.79,3.48,7.8,7.78c0,4.3-3.48,7.79-7.78,7.8,0,0-.01,0-.02,0-4.3,0-7.78-3.48-7.78-7.78Z"/>
  <path class="cls-1" d="m37.91,8.75c0-3.44,2.78-6.23,6.22-6.24,3.44,0,6.23,2.78,6.24,6.22,0,3.44-2.78,6.23-6.22,6.24,0,0-.01,0-.02,0-3.44,0-6.22-2.78-6.22-6.22h0Z"/>
  <path class="cls-1" d="m56.23,28.61c0-4.3,3.48-7.78,7.78-7.78s7.78,3.48,7.78,7.78-3.48,7.78-7.78,7.78h0c-4.3,0-7.78-3.48-7.78-7.78Z"/>
  <path class="cls-1" d="m37.91,28.61c0-3.44,2.79-6.23,6.23-6.23s6.23,2.79,6.23,6.23c0,3.44-2.79,6.23-6.23,6.23,0,0,0,0,0,0-3.44,0-6.22-2.78-6.22-6.22,0,0,0,0,0-.01Z"/>
  <path class="cls-1" d="m19.33,8.75c0-2.67,2.16-4.83,4.83-4.83s4.83,2.16,4.83,4.83-2.16,4.83-4.83,4.83c-2.67,0-4.82-2.16-4.83-4.83Z"/>
  <path class="cls-1" d="m19.33,28.61c.02-2.67,2.2-4.81,4.87-4.79,2.67.02,4.81,2.2,4.79,4.87-.02,2.65-2.18,4.79-4.83,4.79-2.67,0-4.83-2.16-4.83-4.83,0-.01,0-.03,0-.04Z"/>
  <path class="cls-1" d="m0,68.34c0-2.41,1.95-4.36,4.36-4.36s4.36,1.95,4.36,4.36-1.95,4.36-4.36,4.36-4.36-1.95-4.36-4.36h0Z"/>
  <path class="cls-1" d="m0,28.61c0-2.41,1.95-4.36,4.36-4.36s4.36,1.95,4.36,4.36-1.95,4.36-4.36,4.36-4.36-1.95-4.36-4.36h0Z"/>
  <path class="cls-1" d="m0,48.48c0-2.41,1.95-4.36,4.36-4.36s4.36,1.95,4.36,4.36-1.95,4.36-4.36,4.36-4.36-1.95-4.36-4.36h0Z"/>
  <path class="cls-1" d="m19.33,48.48c0-2.67,2.17-4.83,4.84-4.82,2.67,0,4.83,2.17,4.82,4.84,0,2.66-2.17,4.82-4.83,4.82-2.67,0-4.83-2.16-4.83-4.83,0,0,0,0,0-.01Z"/>
  <path class="cls-1" d="m37.91,48.48c0-3.44,2.79-6.23,6.23-6.23s6.23,2.79,6.23,6.23c0,3.44-2.79,6.23-6.23,6.23h0c-3.44,0-6.23-2.79-6.23-6.23Z"/>
  <path class="cls-1" d="m56.23,48.48c0-4.3,3.49-7.78,7.79-7.77,4.3,0,7.78,3.49,7.77,7.79,0,4.29-3.49,7.77-7.78,7.77s-7.78-3.48-7.78-7.78h0Z"/>
</svg>