<?xml version="1.0" encoding="UTF-8"?>
<svg id="Layer_1" data-name="Layer 1" xmlns="http://www.w3.org/2000/svg" viewBox="0 0 112.61 137.12">
  <defs>
    <style>
      .cls-1 {
        fill: #007de4;
      }
    </style>
  </defs>
  <path class="cls-1" d="m37.36,18.64c.02,10.32-8.32,18.7-18.64,18.72C8.4,37.38.02,29.04,0,18.72-.02,8.4,8.32.02,18.64,0c.02,0,.03,0,.05,0,10.3,0,18.65,8.34,18.67,18.64Z"/>
  <path d="m17.48,108.24c0,4.83-3.91,8.74-8.74,8.74-4.83,0-8.74-3.91-8.74-8.74,0-4.83,3.91-8.74,8.74-8.74h0c4.82,0,8.73,3.91,8.73,8.73,0,0,0,0,0,.01Z"/>
  <path d="m37.36,108.24c0,4.83-3.91,8.74-8.74,8.74s-8.74-3.91-8.74-8.74c0-4.83,3.91-8.74,8.74-8.74,4.82,0,8.73,3.9,8.74,8.72,0,0,0,.01,0,.02Z"/>
  <path d="m17.48,128.36c.01,4.83-3.89,8.75-8.72,8.76C3.93,137.13.01,133.23,0,128.4c-.01-4.83,3.89-8.75,8.72-8.76,0,0,.02,0,.03,0,4.82,0,8.72,3.9,8.73,8.72Z"/>
  <path d="m37.36,128.36c0,4.83-3.9,8.74-8.73,8.75s-8.74-3.9-8.75-8.73,3.9-8.74,8.73-8.75h.01c4.82,0,8.73,3.91,8.74,8.73Z"/>
  <path d="m17.48,88.37c0,4.83-3.9,8.74-8.73,8.75C3.92,97.13,0,93.22,0,88.39c0-4.83,3.9-8.74,8.73-8.75,0,0,.01,0,.02,0,4.82,0,8.73,3.91,8.73,8.73h0Z"/>
  <path d="m37.36,88.37c0,4.83-3.9,8.74-8.73,8.75s-8.74-3.9-8.75-8.73,3.9-8.74,8.73-8.75c0,0,0,0,.01,0,4.82,0,8.73,3.91,8.74,8.73Z"/>
  <path d="m17.48,68.51c0,4.83-3.91,8.74-8.74,8.74-4.83,0-8.74-3.91-8.74-8.74,0-4.83,3.91-8.74,8.74-8.74,0,0,0,0,0,0,4.82,0,8.73,3.91,8.73,8.73,0,0,0,0,0,.01Z"/>
  <path d="m37.36,68.51c0,4.83-3.91,8.74-8.74,8.74-4.83,0-8.74-3.91-8.74-8.74,0-4.83,3.91-8.74,8.74-8.74h0c4.82,0,8.73,3.9,8.74,8.72,0,0,0,.01,0,.02Z"/>
  <path d="m17.48,48.64c0,4.83-3.91,8.74-8.74,8.74-4.83,0-8.74-3.91-8.74-8.74,0-4.83,3.91-8.74,8.74-8.74,0,0,0,0,0,0,4.82,0,8.73,3.91,8.73,8.73,0,0,0,0,0,.01Z"/>
  <path d="m37.36,48.64c0,4.83-3.91,8.74-8.74,8.74-4.83,0-8.74-3.91-8.74-8.74,0-4.83,3.91-8.74,8.74-8.74h0c4.82,0,8.73,3.9,8.74,8.72,0,0,0,.01,0,.02Z"/>
  <path d="m56.38,28.78c0,4.3-3.48,7.78-7.78,7.78s-7.78-3.48-7.78-7.78,3.48-7.78,7.78-7.78h0c4.3,0,7.78,3.48,7.78,7.78Z"/>
  <path d="m74.7,28.78c0,3.44-2.79,6.23-6.23,6.23s-6.23-2.79-6.23-6.23c0-3.44,2.79-6.23,6.23-6.23,0,0,0,0,0,0,3.44,0,6.22,2.78,6.22,6.22,0,0,0,0,0,.01Z"/>
  <path d="m56.38,8.92c0,4.3-3.48,7.78-7.78,7.78s-7.78-3.48-7.78-7.78,3.48-7.78,7.78-7.78h0c4.3,0,7.78,3.48,7.78,7.78Z"/>
  <path d="m74.7,8.92c0,3.44-2.79,6.23-6.23,6.23s-6.23-2.79-6.23-6.23c0-3.44,2.79-6.23,6.23-6.23,0,0,0,0,0,0,3.43,0,6.21,2.77,6.22,6.2,0,.01,0,.02,0,.03Z"/>
  <path d="m93.28,28.78c0,2.67-2.16,4.83-4.83,4.83-2.67,0-4.83-2.16-4.83-4.83s2.16-4.83,4.83-4.83,4.83,2.16,4.83,4.83h0Z"/>
  <path d="m93.28,8.92c0,2.67-2.17,4.83-4.84,4.82-2.67,0-4.83-2.17-4.82-4.84,0-2.66,2.17-4.82,4.83-4.82,2.67,0,4.83,2.16,4.83,4.83,0,0,0,0,0,.01Z"/>
  <path d="m56.38,88.37c0,4.3-3.48,7.79-7.78,7.8s-7.79-3.48-7.8-7.78c0-4.3,3.48-7.79,7.78-7.8,0,0,.01,0,.02,0,4.3,0,7.78,3.48,7.78,7.78Z"/>
  <path d="m74.7,88.37c0,3.44-2.78,6.23-6.22,6.24-3.44,0-6.23-2.78-6.24-6.22,0-3.44,2.78-6.23,6.22-6.24,0,0,.01,0,.02,0,3.44,0,6.22,2.78,6.22,6.22h0Z"/>
  <path d="m56.38,68.51c0,4.3-3.48,7.78-7.78,7.78s-7.78-3.48-7.78-7.78,3.48-7.78,7.78-7.78h0c4.3,0,7.78,3.48,7.78,7.78Z"/>
  <path d="m74.7,68.51c0,3.44-2.79,6.23-6.23,6.23s-6.23-2.79-6.23-6.23c0-3.44,2.79-6.23,6.23-6.23,0,0,0,0,0,0,3.44,0,6.22,2.78,6.22,6.22,0,0,0,0,0,.01Z"/>
  <path d="m93.28,88.37c0,2.67-2.16,4.83-4.83,4.83s-4.83-2.16-4.83-4.83,2.16-4.83,4.83-4.83c2.67,0,4.82,2.16,4.83,4.83Z"/>
  <path d="m93.28,68.51c-.02,2.67-2.2,4.81-4.87,4.79-2.67-.02-4.81-2.2-4.79-4.87.02-2.65,2.18-4.79,4.83-4.79,2.67,0,4.83,2.16,4.83,4.83,0,.01,0,.03,0,.04Z"/>
  <path d="m112.61,28.78c0,2.41-1.95,4.36-4.36,4.36s-4.36-1.95-4.36-4.36,1.95-4.36,4.36-4.36,4.36,1.95,4.36,4.36h0Z"/>
  <path d="m112.61,68.51c0,2.41-1.95,4.36-4.36,4.36s-4.36-1.95-4.36-4.36,1.95-4.36,4.36-4.36,4.36,1.95,4.36,4.36h0Z"/>
  <path d="m112.61,48.64c0,2.41-1.95,4.36-4.36,4.36s-4.36-1.95-4.36-4.36,1.95-4.36,4.36-4.36,4.36,1.95,4.36,4.36h0Z"/>
  <path d="m93.28,48.64c0,2.67-2.17,4.83-4.84,4.82-2.67,0-4.83-2.17-4.82-4.84,0-2.66,2.17-4.82,4.83-4.82,2.67,0,4.83,2.16,4.83,4.83,0,0,0,0,0,.01Z"/>
  <path d="m74.7,48.64c0,3.44-2.79,6.23-6.23,6.23s-6.23-2.79-6.23-6.23c0-3.44,2.79-6.23,6.23-6.23h0c3.44,0,6.23,2.79,6.23,6.23Z"/>
  <path d="m56.38,48.64c0,4.3-3.49,7.78-7.79,7.77-4.3,0-7.78-3.49-7.77-7.79,0-4.29,3.49-7.77,7.78-7.77s7.78,3.48,7.78,7.78h0Z"/>
</svg>