<?xml version="1.0" encoding="UTF-8"?>
<svg id="Layer_2" data-name="Layer 2" xmlns="http://www.w3.org/2000/svg" viewBox="0 0 421.33 172.92">
  <defs>
    <style>
      .cls-1 {
        fill: #fff;
      }
    </style>
  </defs>
  <path class="cls-1" d="m264.91,68.93c.8-.8,1.7-.9,2.7-.2.9.7,1,1.5.3,2.3-.5.5-1.7,1.8-3.5,3.8s-3.1,3.4-3.8,4.1c-.7.7-1.8,1.9-3.5,3.6-1.6,1.7-3,3-3.9,3.9-1,.9-2.2,2.1-3.6,3.4-1.4,1.4-2.8,2.6-4.2,3.7s-2.7,2.1-4.1,3.1c-2.3,1.7-4.2,3-5.8,4.1s-3.6,2.4-6.2,3.9c-2.5,1.5-4.8,2.7-6.9,3.5-2.1.9-4.3,1.5-6.8,2.1-2.5.5-4.8.7-7,.4-2.9-.3-5.3-1.1-7.4-2.4-2.1-1.3-3.7-2.9-4.9-4.8s-2.1-4.1-2.7-6.6-1-5-1-7.6c-.1-2.5.1-5.2.4-8s.8-5.3,1.3-7.6c.5-2.3,1.1-4.5,1.9-6.7,5.4-16.6,13.2-32.7,23.2-48.2,1-1.6,1.8-2.9,2.6-3.9.7-1.1,1.8-2.4,3.1-4.1,1.4-1.7,2.6-3.1,3.7-4.2,1.1-1.1,2.5-2.3,4-3.4,1.5-1.1,3.1-2,4.5-2.5,1.5-.5,3-.7,4.8-.6,1.7.1,3.4.5,5.1,1.4,1.1.6,2.1,1.4,3,2.3s1.5,2,2.1,3.3c.5,1.3.9,2.5,1.3,3.7.3,1.1.5,2.6.6,4.3s.1,3.1.1,4.2-.1,2.6-.2,4.4c-.2,1.8-.3,3.1-.4,3.9s-.3,2-.5,3.6c-.1.7-.5,1.2-1.1,1.4-.7.2-1.2.2-1.8-.2-.5-.4-.8-.9-.7-1.6.2-1.5.3-2.7.4-3.6.1-.9.3-2.3.4-4.2.2-1.9.2-3.5.1-4.8-.1-1.3-.2-2.8-.4-4.5s-.5-3.1-1-4.3c-.5-1.1-1.2-2.2-1.9-3.1-.8-1-1.8-1.6-3-2s-2.7-.4-4.3-.1c-1.1.2-2.3.5-3.4,1-1.1.5-2.1,1.1-3.2,1.9-1,.8-2,1.6-2.8,2.4-.9.8-1.8,1.8-2.7,3s-1.7,2.2-2.4,3.2c-.7.9-1.4,2.1-2.3,3.4-.8,1.4-1.5,2.5-2,3.3-.5.9-1.1,2-1.9,3.3-.8,1.4-1.3,2.3-1.6,3-8,13.8-14.1,27.3-18.3,40.3-2.7,8.4-3.8,15.5-3.4,21.4.3,3.4,1.1,6.5,2.7,9.4,1.5,2.9,3.7,5,6.5,6.3,1.1.5,2.2.9,3.5,1.1,1.2.2,2.4.2,3.5.1s2.3-.4,3.6-.7c1.3-.3,2.4-.7,3.4-1.1s2.1-.9,3.3-1.5c4.1-2,8-4.2,11.8-6.8,3.8-2.5,7.6-5.5,11.3-8.9s6.9-6.4,9.5-9c2.6-2.6,5.9-6,9.9-10.3Z"/>
  <path class="cls-1" d="m298.71,63.73c.5-.1.9,0,1.3.4.4.3.6.7.7,1.2s0,.9-.4,1.4-.8,1-1.3,1.6-1.3,1.4-2.4,2.5-2.2,2.1-3.3,2.9c-1.1.8-2.3,1.6-3.7,2.2s-2.7.9-4,.9-2.4-.3-3.4-.9c-1.6-.9-2.4-2.6-2.4-5.1-3.5,4.3-6.8,6-9.9,5.1-2.5-.7-3.8-2.5-3.9-5.4-.1-2,.7-4.4,2.1-7.3,1.5-2.8,3.3-5.3,5.3-7.5,2.1-2.2,4-3.5,5.6-4,1.5-.5,2.8-.3,4,.4.7.4,1.3,1,1.8,1.9v-.2c.3-.4.6-.7,1.1-.9.4-.2.9-.2,1.3,0s.8.5,1,1,.2.9,0,1.3c-.7,1.8-1.5,3.7-2.4,5.5-1.1,3-1.9,5.5-2.2,7.6-.3,2.1-.2,3.5.5,4.1.7.5,1.6.6,2.7.3,1-.3,2.1-.8,3-1.4,1-.6,2-1.4,3.1-2.3,1.1-1,2-1.8,2.7-2.7.7-.8,1.4-1.5,1.9-2.2.3-.1.7-.3,1.2-.4Zm-16.2-4.4c.1-.3.2-.6.4-.9-.2-.3-.4-.5-.5-.9-.2-1.2-.6-2-1.2-2.3-.1-.1-.2-.2-.4-.2s-.3,0-.5.1c-1.9.6-4.2,2.7-6.7,6.3-2.6,3.6-3.8,6.6-3.8,9,0,1,.4,1.6,1.2,1.9,1.5.4,3.3-.7,5.4-3.2,2.1-2.6,4.1-5.9,6.1-9.8Z"/>
  <path class="cls-1" d="m325.11,73.02c.5-.1.9-.1,1.4.2.4.3.7.6.8,1.1s.1.9-.2,1.4c-.2.3-.4.7-.7,1.2s-1,1.3-2,2.3c-1,1.1-2,2-3,2.8-1.1.8-2.4,1.6-4,2.3-1.6.7-3.3,1-4.9,1-.8,0-1.7-.1-2.5-.2-5.1-1-8.6-4.4-10.5-10.3s-2-13.6-.3-23.3c.7-4,1.7-8.2,3-12.7,1.3-4.4,2.8-8.8,4.6-13,1.8-4.2,3.6-8,5.6-11.3s4.1-5.9,6.3-7.8,4.3-2.7,6.4-2.4c.1,0,.2,0,.3.1,1.6.5,2.6,1.6,3.2,3.3.7,2.2.4,5.7-1.1,10.4-1.4,4.7-3.3,9.4-5.5,14s-5,9.8-8.2,15.4-5.6,9.7-7.2,12.3c-1.6,2.7-3.1,5-4.4,7-.1.2-.2.3-.4.4.6,8.5,3.6,13.2,8.9,14.3,1.5.3,2.9.2,4.4-.3,1.5-.4,2.7-1,3.7-1.8,1-.7,1.9-1.6,2.8-2.5.9-1,1.5-1.7,1.8-2.1s.5-.8.6-1.1c.3-.3.6-.6,1.1-.7Zm-22.3-20.9c-.5,3-.9,5.8-1,8.5,4.3-6.8,8.2-13.4,11.8-20,3.6-6.6,6.6-13,9-19.1s3.3-10.3,2.5-12.6c-.2-.5-.4-.8-.8-1h-.2c-1.5,0-3.2,1.3-5.3,3.9-2.1,2.6-4.1,5.9-6.2,10-2,4.1-4,8.8-5.8,14.3-1.8,5.4-3.1,10.7-4,16Z"/>
  <path class="cls-1" d="m351.31,73.02c.5-.1.9-.1,1.4.2.4.3.7.6.8,1.1s.1.9-.2,1.4c-.2.3-.4.7-.7,1.2s-1,1.3-1.9,2.3c-1,1.1-2,2-3,2.8-1.1.8-2.4,1.6-4,2.3-1.6.7-3.2,1-4.9,1-.8,0-1.7-.1-2.5-.2-5.1-1-8.6-4.4-10.5-10.3-1.9-5.8-2-13.6-.3-23.3.7-4,1.7-8.2,3-12.7,1.3-4.4,2.8-8.8,4.6-13,1.8-4.2,3.6-8,5.6-11.3s4.1-5.9,6.3-7.8,4.3-2.7,6.4-2.4c.1,0,.2,0,.3.1,1.6.5,2.6,1.6,3.2,3.3.7,2.2.4,5.7-1.1,10.4-1.4,4.7-3.3,9.4-5.5,14-2.3,4.7-5,9.8-8.2,15.4s-5.6,9.7-7.2,12.3c-1.6,2.7-3.1,5-4.4,7-.1.2-.2.3-.4.4.6,8.5,3.6,13.2,8.9,14.3,1.5.3,2.9.2,4.4-.3,1.5-.4,2.7-1,3.7-1.8,1-.7,1.9-1.6,2.8-2.5.9-1,1.5-1.7,1.8-2.1s.5-.8.6-1.1c.1-.3.5-.6,1-.7Zm-22.4-20.9c-.5,3-.9,5.8-1,8.5,4.3-6.8,8.2-13.4,11.8-20,3.6-6.6,6.6-13,9-19.1s3.3-10.3,2.5-12.6c-.2-.5-.4-.8-.8-1h-.2c-1.5,0-3.2,1.3-5.3,3.9-2.1,2.6-4.1,5.9-6.2,10-2,4.1-4,8.8-5.8,14.3s-3.1,10.7-4,16Z"/>
  <path class="cls-1" d="m200.87,106.05h18.48v65.34h-18.48v-65.34Z"/>
  <path class="cls-1" d="m291.4,130.23c0,14.84-11.2,24.08-29.03,24.08h-11.39v17.08h-18.48v-65.34h29.87c17.83,0,29.03,9.24,29.03,24.17Zm-18.67,0c0-6.07-3.83-9.61-11.48-9.61h-10.27v19.13h10.27c7.65,0,11.48-3.55,11.48-9.52Z"/>
  <path class="cls-1" d="m297.94,138.72c0-19.88,15.21-33.98,35.93-33.98,12.04,0,21.75,4.39,28.09,12.32l-11.76,10.64c-4.11-4.95-9.15-7.65-15.4-7.65-10.73,0-18.2,7.47-18.2,18.67s7.47,18.67,18.2,18.67c6.25,0,11.29-2.71,15.4-7.65l11.76,10.64c-6.35,7.93-16.05,12.32-28.09,12.32-20.72,0-35.93-14.09-35.93-33.97Z"/>
  <path class="cls-1" d="m364.86,165.51l6.07-13.63c5.79,3.83,14,6.44,21.56,6.44s10.64-2.15,10.64-5.32c0-10.36-37.15-2.8-37.15-27.07,0-11.67,9.52-21.19,28.93-21.19,8.49,0,17.27,1.96,23.71,5.69l-5.69,13.72c-6.25-3.36-12.41-5.04-18.11-5.04-7.75,0-10.55,2.61-10.55,5.88,0,9.99,37.06,2.52,37.06,26.6,0,11.39-9.52,21.09-28.93,21.09-10.73,0-21.38-2.89-27.54-7.19Z"/>
  <g>
    <path class="cls-1" d="m172.53,11.42c-.11-2.59-1.08-4.83-2.65-6.77-2.49-3.06-5.91-4.37-9.79-4.39-7.88-.05-15.75-.02-23.63,0-.8,0-1.62.05-2.4.23-3.46.81-6.3,2.55-8.12,5.71-.85,1.48-1.51,3.03-1.56,4.77,0,0,0,0,0,0,0,0,0,0,0,0,0,.36,0,.73,0,1.1,0,0,0,0,0,0,0,0,0,0,0,0,0,.15-.03.3-.03.45,0,8.45,0,16.9,0,25.35,0,.52.08,1.07.23,1.57.94,3.08,2.59,5.64,5.42,7.35,1.57.96,3.21,1.65,5.07,1.77,0,0,0,0,0,0,0,0,0,0,0,0,.37,0,.73,0,1.09,0,0,0,0,0,0,0,0,0,0,0,0,0,8.18,0,16.35,0,24.53,0,0,0,0,0,0,0,.36,0,.73,0,1.09,0,0,0,0,0,0,0,2.41-.12,4.5-1.12,6.3-2.58,3.13-2.54,4.6-5.98,4.58-9.97-.05-8.2.22-16.39-.14-24.59Zm-6.74,19.89c0,1.55-.04,3.13-.59,4.56-1.02,2.63-2.79,4.57-5.59,5.46-1.12.35-2.22.35-3.35.35h-7.82c-2.82,0-5.64-.09-8.45.02-3.82.16-7.01-2.43-8.26-5.66-.29-.75-.49-1.56-.49-2.41.02-6.06.02-12.11,0-18.17-.01-3.43,2.59-6.93,6.03-7.8,1.28-.32,2.54-.51,3.85-.51,4.72,0,9.45.01,14.17,0,1.58,0,3.17.07,4.66.58,1.85.63,3.31,1.82,4.4,3.5,1.09,1.68,1.39,3.55,1.41,5.46.06,4.88.01,9.75.03,14.63Z"/>
    <path class="cls-1" d="m120.7,104.21c-1.66.01-2.89,1.34-2.89,3.12,0,1.83,1.18,2.97,2.93,3.09,1.68.12,3.09-1.36,3.24-3.08.14-1.61-1.52-3.14-3.27-3.13Z"/>
    <path class="cls-1" d="m58.66,6.79c1.5.23,2.99-1.27,3.14-3.05.14-1.61-1.52-3.18-3.27-3.12-1.34.05-3.03,1.16-2.92,3.02.11,1.96,1.16,3.15,3.04,3.15Z"/>
    <path class="cls-1" d="m65.47,6.82c1.68.12,3.09-1.36,3.24-3.07.15-1.6-1.52-3.14-3.26-3.13-1.65,0-2.9,1.34-2.9,3.11,0,1.84,1.18,2.97,2.92,3.1Z"/>
    <path class="cls-1" d="m124.71,107.22c0,1.91,1.16,3.07,2.91,3.2,1.82.13,3.2-1.56,3.25-3.15.05-1.64-1.53-3.09-3.25-3.04-1.33.03-3.13,1.17-2.91,3Z"/>
    <path class="cls-1" d="m134.62,110.39c1.65.23,3.11-1.47,3.15-3.13.04-1.65-1.54-3.09-3.25-3.04-1.33.04-3.04,1.16-2.93,3,.11,1.96,1.16,3.17,3.03,3.17Z"/>
    <path class="cls-1" d="m99.99,6.82c1.82.14,3.2-1.55,3.25-3.15.05-1.64-1.53-3.05-3.24-3.06-1.66,0-2.91,1.33-2.91,3.1s1.18,2.98,2.9,3.11Z"/>
    <path class="cls-1" d="m106.92,6.82c1.67.12,3.09-1.37,3.23-3.09.13-1.62-1.53-3.14-3.27-3.12-1.66.02-2.89,1.35-2.89,3.12,0,1.83,1.18,2.96,2.93,3.08Z"/>
    <path class="cls-1" d="m58.55,13.72c1.82.14,3.2-1.54,3.26-3.14.06-1.63-1.52-3.05-3.24-3.06-1.66,0-2.92,1.33-2.92,3.09s1.19,2.99,2.9,3.12Z"/>
    <path class="cls-1" d="m65.51,13.72c1.65.12,3.1-1.41,3.2-3.11.1-1.61-1.48-3.06-3.21-3.1-1.65-.04-2.95,1.32-2.95,3.06,0,1.89,1.18,3.02,2.96,3.15Z"/>
    <path class="cls-1" d="m72.37,13.72c1.82.14,3.2-1.55,3.25-3.15.05-1.64-1.53-3.05-3.24-3.06-1.66,0-2.91,1.33-2.91,3.1,0,1.83,1.18,2.98,2.91,3.11Z"/>
    <path class="cls-1" d="m113.78,13.72c1.83.14,3.19-1.51,3.28-3.12.08-1.62-1.49-3.06-3.22-3.08-1.65-.02-2.94,1.32-2.94,3.07,0,1.84,1.19,3,2.88,3.14Z"/>
    <path class="cls-1" d="m141.43,104.21c-1.66,0-2.9,1.34-2.9,3.11,0,1.84,1.18,2.97,2.92,3.1,1.68.12,3.09-1.36,3.24-3.07.15-1.6-1.52-3.14-3.26-3.13Z"/>
    <path class="cls-1" d="m155.34,110.39c1.64.24,3.11-1.46,3.16-3.12.05-1.64-1.53-3.09-3.24-3.05-1.33.03-3.04,1.16-2.94,3,.11,1.96,1.16,3.17,3.02,3.17Z"/>
    <path class="cls-1" d="m159.25,107.25c0,1.91,1.16,3.04,2.94,3.17,1.66.12,3.09-1.38,3.22-3.1.12-1.63-1.55-3.18-3.28-3.1-1.34.06-3.1,1.17-2.88,3.03Z"/>
    <path class="cls-1" d="m58.6,14.43c-1.31,0-3.07,1.15-2.97,2.96.11,1.97,1.16,3.21,2.99,3.21,1.64.25,3.1-1.39,3.2-3.09.09-1.61-1.49-3.09-3.21-3.08Z"/>
    <path class="cls-1" d="m72.39,20.63c1.68.12,3.09-1.36,3.24-3.08.14-1.61-1.52-3.14-3.27-3.13-1.66.01-2.89,1.34-2.89,3.12,0,1.83,1.18,2.97,2.93,3.09Z"/>
    <path class="cls-1" d="m3.28,111.13c-1.34.06-3.11,1.17-2.88,3.02,0,1.91,1.15,3.05,2.94,3.17,1.66.12,3.09-1.38,3.23-3.09.13-1.62-1.54-3.18-3.28-3.11Z"/>
    <path class="cls-1" d="m10.28,117.3c1.64.24,3.1-1.42,3.18-3.11.07-1.63-1.51-3.09-3.23-3.06-1.31.02-3.06,1.15-2.95,2.98.11,1.96,1.17,3.19,3.01,3.19Z"/>
    <path class="cls-1" d="m99.99,20.63c1.82.14,3.2-1.54,3.26-3.14.06-1.63-1.52-3.05-3.24-3.06-1.66,0-2.92,1.33-2.92,3.09s1.19,2.99,2.9,3.12Z"/>
    <path class="cls-1" d="m55.65,24.42c0,1.83,1.18,2.98,2.9,3.11,1.82.14,3.2-1.55,3.25-3.15.05-1.63-1.53-3.05-3.24-3.06-1.66,0-2.92,1.33-2.92,3.09Z"/>
    <path class="cls-1" d="m65.46,27.54c1.82.14,3.2-1.55,3.25-3.15.05-1.64-1.53-3.05-3.24-3.06-1.66,0-2.91,1.33-2.91,3.1s1.18,2.98,2.9,3.11Z"/>
    <path class="cls-1" d="m79.28,27.54c1.82.13,3.21-1.57,3.24-3.16.04-1.65-1.53-3.05-3.25-3.05-1.65,0-2.91,1.34-2.91,3.1s1.18,2.98,2.91,3.1Z"/>
    <path class="cls-1" d="m93.07,27.54c1.82.14,3.2-1.52,3.27-3.13.07-1.63-1.5-3.06-3.23-3.08-1.66-.02-2.93,1.32-2.93,3.08,0,1.83,1.19,3,2.89,3.13Z"/>
    <path class="cls-1" d="m106.89,21.33c-1.66,0-2.9,1.34-2.9,3.11,0,1.84,1.18,2.97,2.92,3.1,1.68.12,3.09-1.36,3.24-3.07.15-1.6-1.52-3.14-3.26-3.13Z"/>
    <path class="cls-1" d="m113.78,27.54c1.82.14,3.2-1.51,3.27-3.13.08-1.63-1.5-3.06-3.22-3.08-1.65-.02-2.94,1.32-2.94,3.07,0,1.83,1.19,3,2.88,3.13Z"/>
    <path class="cls-1" d="m93.14,34.44c1.65.12,3.1-1.42,3.2-3.12.09-1.61-1.49-3.06-3.21-3.09-1.65-.03-2.95,1.32-2.95,3.07,0,1.88,1.18,3.02,2.96,3.14Z"/>
    <path class="cls-1" d="m110.15,31.33c.09-1.61-1.49-3.06-3.21-3.09-1.65-.03-2.95,1.32-2.95,3.07,0,1.88,1.18,3.02,2.96,3.14,1.65.12,3.1-1.42,3.2-3.12Z"/>
    <path class="cls-1" d="m113.9,34.42c1.65.23,3.11-1.47,3.15-3.13.04-1.65-1.54-3.09-3.25-3.04-1.33.04-3.04,1.16-2.93,3,.11,1.96,1.16,3.17,3.03,3.17Z"/>
    <path class="cls-1" d="m17.11,117.32c1.82.14,3.2-1.55,3.25-3.15.05-1.63-1.53-3.05-3.24-3.06-1.65,0-2.92,1.33-2.92,3.09s1.18,2.98,2.9,3.11Z"/>
    <path class="cls-1" d="m24.13,117.3c1.5.23,2.99-1.27,3.14-3.05.14-1.61-1.52-3.18-3.27-3.12-1.34.05-3.03,1.16-2.92,3.02.11,1.96,1.16,3.15,3.04,3.15Z"/>
    <path class="cls-1" d="m44.72,111.12c-1.66.01-2.89,1.34-2.89,3.12,0,1.83,1.18,2.96,2.93,3.09,1.68.12,3.09-1.37,3.23-3.08.14-1.62-1.52-3.14-3.27-3.13Z"/>
    <path class="cls-1" d="m51.65,111.12c-1.66,0-2.91,1.34-2.91,3.1,0,1.84,1.18,2.98,2.91,3.11,1.82.14,3.21-1.56,3.25-3.15.04-1.65-1.53-3.05-3.25-3.06Z"/>
    <path class="cls-1" d="m65.45,111.12c-1.65,0-2.9,1.34-2.9,3.11,0,1.84,1.18,2.97,2.92,3.1,1.68.12,3.09-1.36,3.24-3.07.15-1.6-1.52-3.14-3.26-3.13Z"/>
    <path class="cls-1" d="m72.35,111.12c-1.66.01-2.89,1.34-2.89,3.12,0,1.83,1.18,2.96,2.93,3.09,1.67.12,3.09-1.37,3.23-3.08.13-1.62-1.53-3.14-3.27-3.12Z"/>
    <path class="cls-1" d="m110.9,114.16c0,1.9,1.16,3.04,2.94,3.16,1.66.12,3.1-1.39,3.22-3.1.12-1.63-1.55-3.18-3.29-3.1-1.34.06-3.1,1.17-2.88,3.03Z"/>
    <path class="cls-1" d="m120.68,111.13c-1.34.07-3.09,1.16-2.87,3.03,0,1.9,1.16,3.03,2.95,3.16,1.66.12,3.1-1.39,3.21-3.1.11-1.63-1.55-3.18-3.29-3.09Z"/>
    <path class="cls-1" d="m124.71,114.17c0,1.9,1.17,3.03,2.95,3.16,1.66.12,3.1-1.4,3.21-3.1.11-1.63-1.56-3.18-3.29-3.09-1.34.07-3.09,1.15-2.87,3.04Z"/>
    <path class="cls-1" d="m134.6,117.3c1.64.25,3.1-1.41,3.18-3.1.08-1.63-1.5-3.09-3.22-3.07-1.31.02-3.06,1.15-2.96,2.98.11,1.96,1.16,3.19,3,3.19Z"/>
    <path class="cls-1" d="m58.52,42.06c-1.34.06-3.1,1.17-2.88,3.03,0,1.9,1.16,3.04,2.94,3.16,1.66.12,3.1-1.39,3.22-3.1.12-1.63-1.55-3.18-3.29-3.1Z"/>
    <path class="cls-1" d="m72.35,48.26c1.82.14,3.2-1.52,3.27-3.13.07-1.63-1.51-3.06-3.23-3.07-1.66-.02-2.93,1.32-2.93,3.08,0,1.83,1.19,2.99,2.89,3.12Z"/>
    <path class="cls-1" d="m141.44,117.32c1.82.13,3.21-1.58,3.24-3.16.03-1.66-1.55-3.05-3.26-3.05-1.65,0-2.9,1.34-2.9,3.11,0,1.84,1.18,2.97,2.92,3.1Z"/>
    <path class="cls-1" d="m145.43,114.17c0,1.89,1.17,3.03,2.95,3.16,1.65.12,3.1-1.4,3.21-3.11.11-1.63-1.57-3.18-3.29-3.09-1.34.07-3.09,1.15-2.87,3.04Z"/>
    <path class="cls-1" d="m103.24,45.12c.06-1.63-1.52-3.06-3.23-3.07-1.66-.01-2.92,1.33-2.92,3.09s1.19,2.99,2.9,3.12c1.82.14,3.2-1.53,3.26-3.14Z"/>
    <path class="cls-1" d="m117.06,45.13c.08-1.63-1.5-3.06-3.23-3.08-1.65-.02-2.93,1.32-2.93,3.08s1.19,3,2.89,3.13c1.82.14,3.2-1.52,3.27-3.13Z"/>
    <path class="cls-1" d="m155.22,111.13c-1.34.06-3.1,1.17-2.88,3.03,0,1.9,1.16,3.04,2.94,3.16,1.66.12,3.1-1.39,3.22-3.1.12-1.63-1.55-3.18-3.29-3.1Z"/>
    <path class="cls-1" d="m58.52,118.04c-1.34.07-3.09,1.16-2.87,3.04,0,1.9,1.17,3.03,2.95,3.16,1.66.12,3.1-1.4,3.21-3.1.11-1.63-1.56-3.18-3.29-3.09Z"/>
    <path class="cls-1" d="m72.37,118.03c-1.33.03-3.13,1.17-2.91,3,0,1.91,1.16,3.07,2.91,3.2,1.82.13,3.2-1.56,3.25-3.15.05-1.64-1.53-3.09-3.25-3.04Z"/>
    <path class="cls-1" d="m65.55,55.14c1.64.24,3.11-1.46,3.16-3.12.05-1.64-1.53-3.09-3.24-3.05-1.33.03-3.04,1.16-2.94,3,.11,1.96,1.16,3.17,3.02,3.17Z"/>
    <path class="cls-1" d="m79.32,55.16c1.66.12,3.1-1.4,3.21-3.1.11-1.63-1.56-3.18-3.29-3.09-1.34.07-3.09,1.15-2.87,3.04,0,1.9,1.17,3.03,2.95,3.16Z"/>
    <path class="cls-1" d="m100.12,55.14c1.49.23,3-1.28,3.13-3.06.12-1.62-1.54-3.14-3.28-3.12-1.66.02-2.88,1.35-2.88,3.13,0,1.86,1.19,3.05,3.03,3.05Z"/>
    <path class="cls-1" d="m3.26,55.88c-1.34.07-3.09,1.15-2.87,3.04,0,1.9,1.17,3.03,2.95,3.16,1.66.12,3.1-1.4,3.21-3.1.11-1.63-1.56-3.18-3.29-3.09Z"/>
    <path class="cls-1" d="m10.27,62.07c1.65.12,3.1-1.43,3.19-3.12.09-1.61-1.5-3.06-3.22-3.09-1.65-.03-2.94,1.32-2.94,3.07,0,1.88,1.18,3.02,2.97,3.14Z"/>
    <path class="cls-1" d="m30.98,62.07c1.65.12,3.1-1.42,3.2-3.12.09-1.61-1.49-3.06-3.21-3.09-1.65-.03-2.95,1.32-2.95,3.06,0,1.88,1.18,3.02,2.96,3.14Z"/>
    <path class="cls-1" d="m37.84,55.87c-1.33.03-3.13,1.17-2.91,3,0,1.91,1.16,3.07,2.91,3.2,1.82.13,3.2-1.56,3.25-3.15.05-1.64-1.53-3.09-3.25-3.04Z"/>
    <path class="cls-1" d="m44.78,62.07c1.66.12,3.1-1.4,3.21-3.1.11-1.63-1.56-3.18-3.29-3.09-1.34.07-3.09,1.16-2.87,3.04,0,1.9,1.17,3.03,2.95,3.16Z"/>
    <path class="cls-1" d="m79.24,62.07c1.83.14,3.19-1.5,3.28-3.12.09-1.62-1.49-3.06-3.22-3.09-1.65-.03-2.94,1.32-2.94,3.07,0,1.84,1.18,3.01,2.88,3.14Z"/>
    <path class="cls-1" d="m76.37,121.07c0,1.9,1.17,3.03,2.95,3.16,1.66.12,3.1-1.4,3.21-3.1.11-1.63-1.56-3.18-3.29-3.09-1.34.07-3.09,1.15-2.87,3.04Z"/>
    <path class="cls-1" d="m93.05,118.04c-1.34.07-3.09,1.15-2.87,3.04,0,1.89,1.17,3.03,2.95,3.15,1.65.12,3.1-1.41,3.21-3.11.1-1.63-1.57-3.18-3.29-3.09Z"/>
    <path class="cls-1" d="m106.94,62.04c1.65.25,3.09-1.36,3.22-3.07.12-1.63-1.55-3.18-3.28-3.1-1.46.07-2.98,1.27-2.9,2.94.1,1.99,1.15,3.23,2.97,3.23Z"/>
    <path class="cls-1" d="m137.78,58.96c.1-1.61-1.48-3.06-3.21-3.1-1.65-.04-2.95,1.32-2.95,3.06,0,1.89,1.17,3.02,2.96,3.15,1.65.12,3.1-1.41,3.2-3.11Z"/>
    <path class="cls-1" d="m148.37,55.87c-1.31.01-3.06,1.15-2.97,2.97.11,1.97,1.16,3.2,3,3.2,1.64.25,3.1-1.4,3.19-3.09.09-1.62-1.5-3.09-3.22-3.08Z"/>
    <path class="cls-1" d="m155.29,62.07c1.66.12,3.1-1.4,3.21-3.11.11-1.63-1.57-3.18-3.29-3.09-1.34.07-3.09,1.15-2.87,3.04,0,1.9,1.17,3.03,2.95,3.16Z"/>
    <path class="cls-1" d="m162.15,55.86c-1.65,0-2.9,1.34-2.9,3.11,0,1.84,1.18,2.97,2.92,3.1,1.68.12,3.09-1.35,3.24-3.07.15-1.6-1.52-3.14-3.26-3.13Z"/>
    <path class="cls-1" d="m169.05,55.87c-1.33.04-3.03,1.16-2.92,3.01.11,1.96,1.16,3.16,3.04,3.16,1.5.23,2.99-1.26,3.15-3.05.14-1.6-1.52-3.18-3.26-3.12Z"/>
    <path class="cls-1" d="m17.15,68.98c1.66.12,3.1-1.39,3.22-3.1.12-1.63-1.55-3.18-3.29-3.1-1.34.06-3.1,1.17-2.88,3.03,0,1.9,1.16,3.04,2.94,3.16Z"/>
    <path class="cls-1" d="m27.27,65.83c.05-1.64-1.53-3.05-3.24-3.06-1.66,0-2.91,1.33-2.91,3.1s1.18,2.98,2.9,3.11c1.82.14,3.2-1.55,3.25-3.15Z"/>
    <path class="cls-1" d="m51.65,68.98c1.82.14,3.21-1.57,3.25-3.15.04-1.65-1.53-3.05-3.25-3.05-1.65,0-2.91,1.34-2.91,3.1,0,1.84,1.18,2.98,2.91,3.1Z"/>
    <path class="cls-1" d="m65.45,62.78c-1.33.04-3.03,1.16-2.93,3.01.11,1.96,1.16,3.16,3.04,3.16,1.5.23,2.99-1.26,3.15-3.05.14-1.6-1.52-3.18-3.26-3.12Z"/>
    <path class="cls-1" d="m72.35,68.98c1.82.14,3.2-1.52,3.27-3.13.07-1.63-1.51-3.06-3.23-3.07-1.66-.02-2.93,1.32-2.93,3.08,0,1.83,1.19,2.99,2.89,3.12Z"/>
    <path class="cls-1" d="m93.07,62.78c-1.34.05-3.12,1.17-2.89,3.01,0,1.91,1.16,3.05,2.93,3.18,1.68.12,3.09-1.37,3.23-3.08.14-1.62-1.52-3.18-3.27-3.11Z"/>
    <path class="cls-1" d="m106.86,62.78c-1.34.07-3.09,1.16-2.87,3.04,0,1.9,1.17,3.03,2.95,3.16,1.66.12,3.1-1.4,3.21-3.1.11-1.63-1.56-3.18-3.29-3.09Z"/>
    <path class="cls-1" d="m120.77,68.95c1.64.25,3.1-1.39,3.19-3.09.09-1.61-1.49-3.09-3.21-3.08-1.31,0-3.07,1.15-2.97,2.96.11,1.97,1.16,3.2,2.99,3.2Z"/>
    <path class="cls-1" d="m141.41,68.98c1.83.14,3.19-1.51,3.28-3.12.08-1.62-1.49-3.06-3.22-3.08-1.65-.02-2.94,1.32-2.94,3.07,0,1.84,1.19,3,2.88,3.14Z"/>
    <path class="cls-1" d="m145.43,65.88c0,1.84,1.18,2.97,2.92,3.1,1.82.13,3.21-1.59,3.24-3.16.03-1.66-1.55-3.05-3.26-3.05-1.65,0-2.9,1.34-2.9,3.11Z"/>
    <path class="cls-1" d="m162.11,62.78c-1.34.07-3.09,1.15-2.87,3.04,0,1.89,1.17,3.03,2.95,3.16,1.65.12,3.1-1.4,3.21-3.11.11-1.63-1.57-3.18-3.29-3.09Z"/>
    <path class="cls-1" d="m7.3,72.71c0,1.91,1.16,3.05,2.93,3.17,1.67.12,3.09-1.37,3.23-3.09.13-1.62-1.53-3.18-3.27-3.11-1.34.05-3.11,1.17-2.89,3.02Z"/>
    <path class="cls-1" d="m24.01,75.88c1.82.14,3.2-1.53,3.26-3.14.06-1.63-1.52-3.06-3.23-3.07-1.66-.01-2.92,1.33-2.92,3.09s1.19,2.99,2.9,3.12Z"/>
    <path class="cls-1" d="m28.02,72.68c0,1.91,1.16,3.07,2.91,3.2,1.82.13,3.2-1.56,3.25-3.15.05-1.64-1.53-3.09-3.25-3.04-1.33.03-3.13,1.17-2.91,3Z"/>
    <path class="cls-1" d="m37.87,69.68c-1.65-.03-2.95,1.32-2.95,3.06,0,1.88,1.18,3.02,2.96,3.15,1.65.12,3.1-1.42,3.2-3.11.09-1.61-1.49-3.06-3.21-3.09Z"/>
    <path class="cls-1" d="m44.83,75.86c1.64.24,3.11-1.46,3.16-3.12.05-1.64-1.53-3.09-3.24-3.05-1.33.03-3.04,1.16-2.94,3,.11,1.96,1.16,3.17,3.02,3.17Z"/>
    <path class="cls-1" d="m51.64,75.88c1.82.14,3.2-1.53,3.26-3.14.06-1.63-1.52-3.06-3.24-3.07-1.66-.01-2.92,1.33-2.92,3.09s1.19,2.99,2.9,3.12Z"/>
    <path class="cls-1" d="m76.37,72.65c0,1.94,1.14,3.1,2.88,3.23,1.83.14,3.19-1.5,3.28-3.12.09-1.61-1.5-3.09-3.22-3.08-1.31.01-3.16,1.15-2.94,2.97Z"/>
    <path class="cls-1" d="m100.03,124.23c1.66.12,3.1-1.39,3.22-3.1.12-1.63-1.55-3.18-3.29-3.1-1.34.06-3.1,1.17-2.88,3.03,0,1.9,1.16,3.04,2.94,3.16Z"/>
    <path class="cls-1" d="m113.81,124.23c1.82.13,3.21-1.57,3.25-3.15.04-1.65-1.54-3.05-3.25-3.05-1.65,0-2.91,1.34-2.91,3.1s1.18,2.98,2.91,3.1Z"/>
    <path class="cls-1" d="m110.15,72.75c.07-1.63-1.51-3.06-3.23-3.07-1.66-.01-2.93,1.32-2.93,3.08s1.19,2.99,2.89,3.12c1.82.14,3.2-1.52,3.27-3.14Z"/>
    <path class="cls-1" d="m117.81,72.76c0,1.83,1.19,3,2.89,3.13,1.82.14,3.2-1.52,3.27-3.13.07-1.63-1.5-3.06-3.23-3.08-1.66-.02-2.93,1.32-2.93,3.08Z"/>
    <path class="cls-1" d="m134.58,75.88c1.65.12,3.1-1.42,3.2-3.12.09-1.61-1.49-3.06-3.21-3.09-1.65-.03-2.95,1.32-2.95,3.07,0,1.88,1.18,3.02,2.96,3.14Z"/>
    <path class="cls-1" d="m148.32,69.69c-1.34.05-3.11,1.17-2.89,3.02,0,1.91,1.16,3.05,2.93,3.17,1.67.12,3.09-1.37,3.23-3.09.13-1.62-1.53-3.18-3.28-3.11Z"/>
    <path class="cls-1" d="m152.34,72.73c0,1.9,1.17,3.03,2.95,3.16,1.66.12,3.1-1.4,3.21-3.1.11-1.63-1.56-3.18-3.29-3.09-1.34.07-3.09,1.16-2.87,3.04Z"/>
    <path class="cls-1" d="m3.29,76.58c-1.66,0-2.89,1.34-2.89,3.12,0,1.83,1.18,2.97,2.93,3.09,1.68.12,3.09-1.36,3.24-3.08.14-1.61-1.52-3.14-3.27-3.13Z"/>
    <path class="cls-1" d="m30.92,76.58c-1.66,0-2.9,1.34-2.9,3.11,0,1.84,1.18,2.97,2.92,3.1,1.68.12,3.09-1.36,3.24-3.07.15-1.6-1.52-3.14-3.26-3.13Z"/>
    <path class="cls-1" d="m34.93,79.69c0,1.84,1.18,2.97,2.92,3.1,1.68.12,3.09-1.36,3.24-3.07.15-1.6-1.52-3.14-3.26-3.13-1.66,0-2.9,1.34-2.9,3.11Z"/>
    <path class="cls-1" d="m72.39,82.79c1.67.12,3.09-1.37,3.23-3.09.13-1.62-1.53-3.18-3.28-3.11-1.34.05-3.11,1.17-2.89,3.02,0,1.91,1.16,3.05,2.93,3.17Z"/>
    <path class="cls-1" d="m106.93,76.58c-1.65-.03-2.94,1.32-2.94,3.07,0,1.84,1.18,3.01,2.88,3.14,1.83.14,3.19-1.5,3.28-3.12.09-1.62-1.49-3.06-3.22-3.09Z"/>
    <path class="cls-1" d="m120.69,82.76c1.82.26,3.19-1.48,3.28-3.1.08-1.62-1.49-3.09-3.22-3.07-1.4.02-3.03,1.22-2.96,2.88.09,2.01,1.13,3.29,2.9,3.29Z"/>
    <path class="cls-1" d="m127.61,82.79c1.82.14,3.2-1.54,3.26-3.14.06-1.63-1.52-3.05-3.24-3.06-1.66,0-2.92,1.33-2.92,3.09s1.19,2.99,2.9,3.12Z"/>
    <path class="cls-1" d="m152.34,79.63c0,1.91,1.16,3.04,2.94,3.16,1.66.12,3.1-1.39,3.22-3.1.12-1.63-1.55-3.18-3.28-3.1-1.34.06-3.1,1.17-2.88,3.03Z"/>
    <path class="cls-1" d="m162.15,76.58c-1.65,0-2.91,1.34-2.91,3.1,0,1.84,1.18,2.98,2.91,3.1,1.82.14,3.21-1.57,3.25-3.15.04-1.65-1.53-3.05-3.25-3.05Z"/>
    <path class="cls-1" d="m141.42,118.04c-1.34.05-3.02,1.17-2.92,3.02.11,1.96,1.16,3.15,3.05,3.15,1.5.23,2.99-1.27,3.14-3.05.14-1.62-1.52-3.18-3.27-3.11Z"/>
    <path class="cls-1" d="m79.33,131.11c1.64.25,3.1-1.39,3.2-3.09.09-1.61-1.49-3.09-3.21-3.08-1.31,0-3.07,1.15-2.97,2.96.11,1.97,1.16,3.21,2.99,3.21Z"/>
    <path class="cls-1" d="m96.34,127.99c.05-1.64-1.53-3.05-3.25-3.06-1.66,0-2.91,1.33-2.91,3.1s1.18,2.98,2.91,3.11c1.82.14,3.2-1.56,3.25-3.15Z"/>
    <path class="cls-1" d="m97.09,128.01c0,1.83,1.19,3,2.89,3.13,1.82.14,3.2-1.52,3.27-3.13.07-1.63-1.5-3.06-3.23-3.08-1.66-.02-2.93,1.32-2.93,3.08Z"/>
    <path class="cls-1" d="m110.9,127.96c0,1.91,1.16,3.05,2.93,3.17,1.67.12,3.09-1.37,3.23-3.09.13-1.62-1.53-3.18-3.28-3.11-1.34.05-3.11,1.17-2.89,3.02Z"/>
    <path class="cls-1" d="m127.59,124.94c-1.34.06-3.1,1.17-2.88,3.03,0,1.9,1.16,3.04,2.94,3.16,1.66.12,3.1-1.39,3.22-3.1.12-1.63-1.55-3.18-3.29-3.1Z"/>
    <path class="cls-1" d="m141.42,131.14c1.82.14,3.2-1.53,3.26-3.14.06-1.63-1.52-3.06-3.23-3.07-1.66-.01-2.92,1.33-2.92,3.09,0,1.83,1.19,2.99,2.89,3.12Z"/>
    <path class="cls-1" d="m79.32,152.56c-1.65-.03-2.95,1.32-2.95,3.06,0,1.89,1.18,3.02,2.96,3.15,1.65.12,3.1-1.42,3.2-3.11.1-1.61-1.48-3.06-3.21-3.09Z"/>
    <path class="cls-1" d="m58.65,144.92c1.65.23,3.11-1.48,3.15-3.13.04-1.65-1.54-3.09-3.25-3.04-1.33.04-3.04,1.16-2.93,3,.11,1.96,1.16,3.16,3.03,3.16Z"/>
    <path class="cls-1" d="m68.71,141.8c.05-1.64-1.53-3.05-3.24-3.06-1.66,0-2.91,1.33-2.91,3.1s1.18,2.98,2.9,3.11c1.82.14,3.2-1.55,3.25-3.15Z"/>
    <path class="cls-1" d="m65.47,145.65c-1.66,0-2.92,1.33-2.92,3.09s1.19,2.99,2.9,3.12c1.82.14,3.2-1.54,3.26-3.14.06-1.63-1.53-3.05-3.24-3.06Z"/>
    <path class="cls-1" d="m72.36,145.66c-1.33.04-3.03,1.16-2.92,3.01.11,1.96,1.16,3.16,3.04,3.16,1.51.23,2.99-1.26,3.15-3.05.14-1.6-1.52-3.18-3.26-3.12Z"/>
    <path class="cls-1" d="m72.36,158.76c1.82.14,3.2-1.55,3.25-3.15.05-1.64-1.53-3.05-3.24-3.06-1.66,0-2.91,1.33-2.91,3.1,0,1.83,1.18,2.98,2.9,3.11Z"/>
    <path class="cls-1" d="m58.64,165.64c1.64.24,3.11-1.44,3.17-3.11.06-1.63-1.52-3.09-3.24-3.06-1.32.02-3.05,1.16-2.95,2.99.11,1.96,1.16,3.18,3.01,3.18Z"/>
    <path class="cls-1" d="m72.34,159.48c-1.34.06-3.11,1.17-2.88,3.02,0,1.91,1.15,3.05,2.94,3.17,1.66.12,3.09-1.38,3.23-3.09.13-1.62-1.54-3.18-3.28-3.11Z"/>
    <path class="cls-1" d="m79.25,159.46c-1.66.02-2.89,1.35-2.89,3.12,0,1.83,1.18,2.96,2.93,3.08,1.67.12,3.09-1.37,3.23-3.09.13-1.62-1.53-3.14-3.27-3.12Z"/>
    <path class="cls-1" d="m58.54,166.37c-1.66.01-2.89,1.34-2.89,3.12,0,1.83,1.18,2.97,2.93,3.09,1.68.12,3.09-1.36,3.24-3.08.14-1.61-1.52-3.14-3.27-3.13Z"/>
    <path class="cls-1" d="m3.39,96.58c1.64.24,3.11-1.45,3.16-3.12.05-1.64-1.53-3.09-3.24-3.05-1.33.03-3.04,1.16-2.94,2.99.11,1.96,1.16,3.17,3.02,3.17Z"/>
    <path class="cls-1" d="m17.22,96.58c1.5.23,2.99-1.27,3.14-3.05.14-1.61-1.52-3.18-3.27-3.12-1.34.05-3.03,1.16-2.92,3.02.11,1.96,1.16,3.15,3.04,3.15Z"/>
    <path class="cls-1" d="m37.9,96.58c1.64.25,3.1-1.4,3.19-3.09.09-1.62-1.5-3.09-3.22-3.08-1.31.01-3.06,1.15-2.97,2.97.11,1.97,1.16,3.2,3,3.2Z"/>
    <path class="cls-1" d="m51.64,96.6c1.82.14,3.2-1.53,3.26-3.14.06-1.63-1.52-3.05-3.24-3.07-1.66-.01-2.92,1.33-2.92,3.09s1.19,2.99,2.9,3.12Z"/>
    <path class="cls-1" d="m65.5,96.6c1.66.12,3.1-1.4,3.21-3.1.11-1.63-1.56-3.18-3.29-3.09-1.34.07-3.09,1.16-2.87,3.04,0,1.9,1.17,3.03,2.95,3.16Z"/>
    <path class="cls-1" d="m79.27,90.4c-1.65,0-2.9,1.34-2.9,3.11,0,1.84,1.18,2.97,2.92,3.1,1.68.12,3.09-1.36,3.24-3.07.15-1.6-1.52-3.14-3.26-3.13Z"/>
    <path class="cls-1" d="m93.07,96.6c1.82.14,3.2-1.52,3.27-3.13.08-1.63-1.5-3.06-3.23-3.08-1.65-.02-2.93,1.32-2.93,3.08,0,1.83,1.19,3,2.89,3.13Z"/>
    <path class="cls-1" d="m99.98,96.6c1.82.14,3.2-1.52,3.27-3.14.07-1.63-1.51-3.06-3.23-3.07-1.66-.01-2.93,1.32-2.93,3.08s1.19,2.99,2.89,3.12Z"/>
    <path class="cls-1" d="m110.15,93.47c.07-1.63-1.51-3.06-3.23-3.07-1.66-.01-2.93,1.32-2.93,3.08s1.19,2.99,2.89,3.12c1.82.14,3.2-1.52,3.27-3.14Z"/>
    <path class="cls-1" d="m113.8,96.6c1.82.14,3.2-1.54,3.26-3.14.06-1.63-1.52-3.05-3.24-3.06-1.66,0-2.92,1.33-2.92,3.09s1.19,2.99,2.9,3.12Z"/>
    <path class="cls-1" d="m138.53,93.43c0,1.91,1.16,3.05,2.93,3.17,1.67.12,3.09-1.37,3.23-3.09.13-1.62-1.53-3.18-3.28-3.11-1.34.05-3.11,1.17-2.89,3.02Z"/>
    <path class="cls-1" d="m159.25,93.44c0,1.9,1.17,3.03,2.95,3.16,1.66.12,3.1-1.4,3.21-3.1.11-1.63-1.55-3.18-3.29-3.09-1.34.07-3.09,1.16-2.87,3.03Z"/>
    <path class="cls-1" d="m34.93,100.38c0,1.84,1.19,3,2.88,3.14,1.83.14,3.2-1.51,3.28-3.12.08-1.62-1.49-3.06-3.22-3.08-1.65-.02-2.94,1.32-2.94,3.07Z"/>
    <path class="cls-1" d="m44.86,103.48c1.49.23,3-1.28,3.14-3.06.13-1.62-1.53-3.18-3.28-3.11-1.34.05-3.02,1.17-2.91,3.02.11,1.95,1.17,3.15,3.05,3.15Z"/>
    <path class="cls-1" d="m51.63,97.32c-1.34.05-3.11,1.17-2.89,3.02,0,1.91,1.15,3.05,2.93,3.17,1.67.12,3.09-1.37,3.23-3.09.13-1.62-1.53-3.18-3.28-3.11Z"/>
    <path class="cls-1" d="m79.35,103.48c1.64.24,3.1-1.42,3.18-3.11.07-1.63-1.51-3.09-3.23-3.06-1.31.02-3.06,1.15-2.95,2.98.11,1.96,1.17,3.19,3.01,3.19Z"/>
    <path class="cls-1" d="m99.97,103.51c1.82.14,3.2-1.52,3.27-3.13.08-1.63-1.5-3.06-3.23-3.08-1.65-.02-2.93,1.32-2.93,3.08,0,1.83,1.19,3,2.89,3.13Z"/>
    <path class="cls-1" d="m106.92,97.3c-1.66-.02-2.93,1.32-2.93,3.08,0,1.83,1.19,2.99,2.89,3.12,1.82.14,3.2-1.52,3.27-3.13.07-1.63-1.51-3.06-3.23-3.07Z"/>
    <path class="cls-1" d="m127.61,97.3c-1.65,0-2.9,1.34-2.9,3.11,0,1.84,1.18,2.97,2.92,3.1,1.82.13,3.21-1.59,3.24-3.16.03-1.66-1.55-3.05-3.26-3.05Z"/>
    <path class="cls-1" d="m134.51,103.51c1.82.14,3.2-1.52,3.27-3.13.07-1.63-1.51-3.06-3.23-3.07-1.66-.02-2.93,1.32-2.93,3.08s1.19,3,2.89,3.13Z"/>
    <path class="cls-1" d="m141.42,97.3c-1.66.01-2.89,1.34-2.89,3.12,0,1.83,1.18,2.96,2.93,3.09,1.68.12,3.09-1.37,3.23-3.08.14-1.62-1.52-3.14-3.27-3.13Z"/>
    <path class="cls-1" d="m145.43,100.36c0,1.89,1.17,3.03,2.95,3.16,1.65.12,3.1-1.4,3.21-3.11.11-1.63-1.57-3.18-3.29-3.09-1.34.07-3.09,1.15-2.87,3.04Z"/>
    <path class="cls-1" d="m155.23,103.51c1.82.14,3.2-1.52,3.27-3.13.08-1.63-1.5-3.06-3.23-3.08-1.65-.02-2.93,1.32-2.93,3.08,0,1.83,1.19,3,2.89,3.13Z"/>
    <path class="cls-1" d="m20.36,107.26c.03-1.66-1.55-3.05-3.26-3.05-1.65,0-2.9,1.34-2.9,3.11,0,1.84,1.18,2.97,2.92,3.1,1.82.13,3.21-1.59,3.24-3.16Z"/>
    <path class="cls-1" d="m21.11,107.19c0,1.94,1.14,3.1,2.88,3.23,1.83.14,3.19-1.5,3.28-3.12.09-1.61-1.5-3.09-3.22-3.08-1.31.01-3.16,1.15-2.94,2.97Z"/>
    <path class="cls-1" d="m31,110.39c1.64.24,3.1-1.42,3.17-3.11.07-1.63-1.51-3.09-3.23-3.06-1.31.02-3.05,1.15-2.95,2.98.11,1.96,1.17,3.19,3.01,3.19Z"/>
    <path class="cls-1" d="m51.65,104.22c-1.33.04-3.04,1.16-2.93,3,.11,1.96,1.16,3.17,3.03,3.17,1.65.23,3.11-1.47,3.15-3.13.04-1.65-1.54-3.09-3.25-3.04Z"/>
    <path class="cls-1" d="m69.46,107.34c0,1.86,1.19,3.05,3.03,3.05,1.49.23,3-1.29,3.13-3.06.12-1.62-1.54-3.14-3.28-3.12-1.66.02-2.88,1.35-2.88,3.13Z"/>
    <path class="cls-1" d="m100.06,110.39c1.64.25,3.1-1.41,3.18-3.1.08-1.63-1.5-3.09-3.22-3.07-1.31.02-3.06,1.15-2.96,2.98.11,1.96,1.16,3.19,3,3.19Z"/>
    <path class="cls-1" d="m113.85,138.74c-1.64-.04-2.95,1.32-2.95,3.07-.19,1.71,1.42,3.15,2.98,3.13,1.92-.03,3.08-1.52,3.17-3.12.1-1.61-1.48-3.04-3.21-3.08Z"/>
    <path class="cls-1" d="m93.19,144.95c1.95-.04,3.09-1.6,3.15-3.15.06-1.64-1.51-3.04-3.23-3.06-1.65-.02-2.92,1.33-2.92,3.1-.18,1.7,1.43,3.14,3.01,3.11Z"/>
    <path class="cls-1" d="m169.1,166.37c-1.64-.03-2.94,1.32-2.94,3.07-.19,1.71,1.42,3.15,2.99,3.13,1.92-.03,3.08-1.53,3.17-3.13.09-1.62-1.48-3.04-3.21-3.08Z"/>
    <path class="cls-1" d="m162.14,166.37c-1.62,0-2.89,1.34-2.89,3.04-.19,1.77,1.43,3.17,2.95,3.16,1.91-.01,3.07-1.45,3.21-3.09.13-1.62-1.52-3.12-3.27-3.11Z"/>
    <path class="cls-1" d="m155.24,166.37c-1.62,0-2.9,1.33-2.9,3.03-.2,1.79,1.44,3.18,2.94,3.18,1.9,0,3.07-1.42,3.22-3.08.15-1.61-1.51-3.12-3.26-3.12Z"/>
    <path class="cls-1" d="m127.63,166.37c-1.65-.02-2.85,1.34-2.94,3.1-.09,1.7,1.45,3.23,3.03,3.08,1.95.06,3.09-1.58,3.15-3.12.06-1.64-1.51-3.04-3.23-3.06Z"/>
    <path class="cls-1" d="m106.89,166.38c-1.24.04-2.85.93-2.93,2.92-.08,1.92,1.5,3.36,2.97,3.24,1.91.09,3.07-1.41,3.22-3.06.15-1.62-1.51-3.17-3.26-3.11Z"/>
    <path class="cls-1" d="m93.06,166.39c-1.26.06-2.98.94-2.88,3.03-.19,1.75,1.42,3.17,2.96,3.15,1.91-.01,3.07-1.47,3.2-3.1.12-1.63-1.53-3.17-3.28-3.09Z"/>
    <path class="cls-1" d="m141.41,138.76c-1.25.05-2.98.94-2.89,3.03-.19,1.76,1.43,3.17,2.96,3.16,1.91-.01,3.07-1.46,3.2-3.09.13-1.63-1.52-3.17-3.27-3.09Z"/>
    <path class="cls-1" d="m162.14,159.46c-1.62,0-2.89,1.34-2.9,3.03-.2,1.78,1.44,3.18,2.94,3.17,1.91,0,3.07-1.44,3.21-3.08.14-1.62-1.51-3.12-3.26-3.12Z"/>
    <path class="cls-1" d="m155.24,159.46c-1.62,0-2.89,1.34-2.9,3.03-.2,1.78,1.44,3.18,2.94,3.17,1.91,0,3.07-1.44,3.21-3.08.14-1.62-1.51-3.12-3.26-3.12Z"/>
    <path class="cls-1" d="m134.52,138.74c-1.62,0-2.89,1.34-2.9,3.03-.2,1.78,1.44,3.18,2.94,3.17,1.91,0,3.07-1.44,3.21-3.08.14-1.62-1.51-3.12-3.26-3.12Z"/>
    <path class="cls-1" d="m127.73,144.95c1.96-.04,3.09-1.62,3.14-3.15.05-1.65-1.52-3.04-3.24-3.05-1.65-.01-2.92,1.34-2.92,3.1-.17,1.69,1.43,3.14,3.02,3.1Z"/>
    <path class="cls-1" d="m141.42,159.48c-1.26.05-2.84.94-2.92,2.93-.08,1.9,1.49,3.35,2.98,3.23,1.91.08,3.07-1.43,3.21-3.07.14-1.62-1.52-3.17-3.27-3.1Z"/>
    <path class="cls-1" d="m148.37,159.46c-1.65-.03-2.94,1.32-2.94,3.08-.18,1.7,1.42,3.15,2.99,3.12,1.92-.03,3.08-1.54,3.16-3.13.08-1.63-1.48-3.04-3.22-3.07Z"/>
    <path class="cls-1" d="m134.53,159.46c-1.65,0-2.91,1.34-2.91,3.11-.17,1.69,1.43,3.13,3.02,3.1,1.96-.05,3.09-1.63,3.13-3.16.05-1.65-1.52-3.04-3.24-3.05Z"/>
    <path class="cls-1" d="m120.69,159.48c-1.26.05-2.98.94-2.88,3.03-.19,1.75,1.43,3.17,2.96,3.16,1.91-.01,3.07-1.47,3.2-3.1.13-1.63-1.53-3.17-3.27-3.09Z"/>
    <path class="cls-1" d="m106.91,159.46c-1.62-.01-2.91,1.32-2.92,3.01-.2,1.81,1.44,3.19,2.92,3.19,2.03.01,3.18-1.61,3.23-3.15.06-1.64-1.52-3.04-3.24-3.05Z"/>
    <path class="cls-1" d="m100,159.46c-1.62-.01-2.91,1.32-2.92,3.01-.2,1.81,1.44,3.19,2.92,3.19,2.03.01,3.18-1.61,3.23-3.15.06-1.64-1.52-3.04-3.24-3.05Z"/>
    <path class="cls-1" d="m162.23,158.76c1.92-.03,3.08-1.53,3.17-3.13.09-1.62-1.48-3.04-3.21-3.08-1.65-.03-2.94,1.32-2.94,3.07-.19,1.71,1.42,3.15,2.99,3.13Z"/>
    <path class="cls-1" d="m148.45,158.76c1.96-.05,3.09-1.63,3.14-3.16.05-1.65-1.52-3.04-3.24-3.05-1.65,0-2.91,1.34-2.91,3.1-.17,1.69,1.43,3.14,3.02,3.1Z"/>
    <path class="cls-1" d="m127.6,152.57c-1.25.05-2.98.94-2.89,3.03-.19,1.76,1.43,3.17,2.96,3.16,1.91-.01,3.07-1.46,3.2-3.09.13-1.63-1.52-3.17-3.27-3.09Z"/>
    <path class="cls-1" d="m113.81,152.56c-1.62,0-2.9,1.33-2.91,3.02-.2,1.79,1.44,3.18,2.93,3.18,1.9,0,3.06-1.41,3.22-3.07.16-1.61-1.5-3.12-3.25-3.13Z"/>
    <path class="cls-1" d="m106.92,152.56c-1.65-.02-2.92,1.33-2.92,3.09-.18,1.7,1.43,3.14,3.01,3.11,1.94-.04,3.09-1.59,3.15-3.15.06-1.64-1.51-3.04-3.23-3.06Z"/>
    <path class="cls-1" d="m99.97,152.57c-1.26.05-2.98.94-2.88,3.03-.19,1.75,1.43,3.17,2.96,3.16,1.91-.01,3.07-1.46,3.2-3.1.13-1.63-1.53-3.17-3.27-3.09Z"/>
    <path class="cls-1" d="m93.16,158.76c1.92-.03,3.08-1.52,3.17-3.12.09-1.61-1.48-3.04-3.21-3.08-1.64-.04-2.95,1.32-2.95,3.07-.19,1.71,1.42,3.15,2.98,3.13Z"/>
    <path class="cls-1" d="m169.02,145.67c-1.28.07-2.96.95-2.87,3.04-.19,1.72,1.42,3.16,2.97,3.14,1.91-.02,3.08-1.5,3.18-3.11.11-1.64-1.56-3.17-3.29-3.07Z"/>
    <path class="cls-1" d="m162.24,151.85c1.92-.03,3.08-1.54,3.16-3.13.09-1.63-1.48-3.04-3.21-3.07-1.65-.03-2.94,1.32-2.94,3.08-.18,1.7,1.42,3.15,2.99,3.12Z"/>
    <path class="cls-1" d="m155.35,151.83c1.94.06,3.09-1.57,3.15-3.12.06-1.64-1.5-3.04-3.23-3.06-1.65-.02-2.86,1.33-2.94,3.09-.09,1.7,1.45,3.23,3.03,3.09Z"/>
    <path class="cls-1" d="m134.5,145.66c-1.26.05-2.98.94-2.88,3.03-.19,1.75,1.43,3.17,2.96,3.16,1.91-.01,3.07-1.46,3.2-3.1.13-1.63-1.53-3.17-3.27-3.09Z"/>
    <path class="cls-1" d="m127.71,151.85c1.93-.04,3.08-1.57,3.15-3.14.07-1.64-1.49-3.04-3.22-3.06-1.65-.02-2.93,1.33-2.93,3.09-.18,1.7,1.42,3.14,3,3.12Z"/>
    <path class="cls-1" d="m120.82,151.83c1.96.05,3.09-1.6,3.14-3.13.05-1.65-1.52-3.04-3.24-3.05-1.65,0-2.91,1.34-2.91,3.11,0,1.84,1.22,3.08,3.02,3.07Z"/>
    <path class="cls-1" d="m106.86,145.67c-1.26.07-2.97.94-2.87,3.04-.19,1.73,1.42,3.16,2.97,3.15,1.91-.02,3.08-1.49,3.19-3.11.11-1.64-1.55-3.17-3.28-3.08Z"/>
    <path class="cls-1" d="m99.99,145.65c-1.62,0-2.9,1.33-2.9,3.02-.2,1.79,1.44,3.18,2.94,3.18,1.9,0,3.06-1.41,3.22-3.07.15-1.61-1.5-3.12-3.25-3.13Z"/>
    <path class="cls-1" d="m162.13,138.76c-1.25.05-2.98.94-2.89,3.03-.19,1.76,1.43,3.17,2.95,3.16,1.91-.01,3.07-1.46,3.2-3.09.13-1.63-1.52-3.17-3.27-3.09Z"/>
    <path class="cls-1" d="m155.28,144.92c1.91.09,3.07-1.41,3.22-3.06.15-1.62-1.51-3.17-3.26-3.11-1.24.04-2.85.93-2.93,2.92-.08,1.92,1.5,3.36,2.97,3.24Z"/>
    <path class="cls-1" d="m148.32,138.76c-1.25.05-2.98.94-2.89,3.03-.19,1.76,1.43,3.17,2.96,3.16,1.91-.01,3.07-1.46,3.2-3.09.13-1.63-1.52-3.17-3.27-3.09Z"/>
    <path class="cls-1" d="m123.96,141.79c.05-1.65-1.52-3.04-3.24-3.05-1.65,0-2.91,1.34-2.91,3.11,0,1.84,1.22,3.08,3.02,3.07,1.96.05,3.09-1.6,3.14-3.13Z"/>
    <path class="cls-1" d="m93.17,151.85c1.92-.03,3.08-1.53,3.17-3.13.09-1.62-1.48-3.04-3.21-3.08-1.64-.03-2.94,1.32-2.94,3.07-.19,1.71,1.42,3.15,2.99,3.13Z"/>
    <path class="cls-1" d="m80.44,137.85c1.99-.8,2.56-2.85,1.4-4.75-1.13-1.55-3.56-1.67-4.76-.19-.78.62-.71,1.48-.73,2.34-.02,1.74,1.99,3.44,4.08,2.6Z"/>
    <path class="cls-1" d="m154.19,137.83c1.38.5,2.81.13,3.63-1.05.69-.99,1.08-2.15,0-3.68-1.13-1.55-3.56-1.67-4.75-.19-1.26,1.16-1,4.15,1.13,4.92Z"/>
    <path class="cls-1" d="m112.75,137.83c1.38.5,2.81.13,3.63-1.05.69-.99,1.08-2.15,0-3.68-1.13-1.55-3.56-1.67-4.76-.19-1.26,1.16-1,4.15,1.13,4.92Z"/>
    <path class="cls-1" d="m140.37,137.83c1.38.5,2.81.13,3.63-1.05.69-.99,1.08-2.15,0-3.68-1.13-1.55-3.56-1.67-4.75-.19-1.26,1.16-1,4.15,1.13,4.92Z"/>
    <path class="cls-1" d="m147.28,137.83c1.38.5,2.81.13,3.63-1.05.69-.99,1.08-2.15,0-3.68-1.13-1.55-3.56-1.67-4.75-.19-1.26,1.16-1,4.15,1.13,4.92Z"/>
    <path class="cls-1" d="m58.26,35.18c-2.39.4-3.43,2.72-2.07,4.89,1.24,2,4.39,1.54,5.12-.38.84-1.1.55-2.24-.11-3.23-.66-1-1.79-1.48-2.94-1.29Z"/>
    <path class="cls-1" d="m99.7,35.18c-2.39.4-3.43,2.72-2.07,4.89,1.24,2,4.39,1.54,5.12-.38.84-1.1.55-2.24-.11-3.23-.66-1-1.79-1.48-2.94-1.29Z"/>
    <path class="cls-1" d="m113.51,35.18c-2.39.4-3.43,2.72-2.07,4.89,1.24,2,4.39,1.54,5.12-.38.84-1.1.55-2.24-.11-3.23-.66-1-1.79-1.48-2.94-1.29Z"/>
    <path class="cls-1" d="m167.63,89.29c2.01,1.16,4.52-.1,4.67-2.9-.05-.2-.11-.39-.15-.59-.3-1.37-1.94-2.56-3.34-2.31-1.71.3-2.91,1.65-2.63,2.9-.23,1.32.38,2.28,1.45,2.9Z"/>
    <path class="cls-1" d="m160.72,89.29c2.01,1.16,4.52-.1,4.67-2.9-.05-.2-.11-.39-.15-.59-.3-1.37-1.94-2.56-3.34-2.31-1.71.3-2.91,1.65-2.63,2.9-.23,1.32.38,2.28,1.45,2.9Z"/>
    <path class="cls-1" d="m8.78,89.29c2.01,1.16,4.52-.1,4.67-2.9-.05-.2-.11-.39-.15-.59-.3-1.37-1.94-2.56-3.34-2.31-1.71.3-2.91,1.65-2.63,2.9-.23,1.32.38,2.28,1.45,2.9Z"/>
    <path class="cls-1" d="m29.5,89.29c2.01,1.16,4.52-.1,4.67-2.9-.05-.2-.11-.39-.15-.59-.3-1.37-1.94-2.56-3.34-2.31-1.71.3-2.91,1.65-2.63,2.9-.23,1.32.38,2.28,1.45,2.9Z"/>
    <path class="cls-1" d="m43.31,89.29c2.01,1.16,4.52-.1,4.67-2.9-.05-.2-.11-.39-.15-.59-.3-1.37-1.94-2.56-3.34-2.31-1.71.3-2.91,1.65-2.63,2.9-.23,1.32.38,2.28,1.45,2.9Z"/>
    <path class="cls-1" d="m57.12,89.29c2.01,1.16,4.52-.1,4.67-2.9-.05-.2-.11-.39-.15-.59-.3-1.37-1.94-2.56-3.34-2.31-1.71.3-2.91,1.65-2.63,2.9-.23,1.32.38,2.28,1.45,2.9Z"/>
    <path class="cls-1" d="m70.94,89.29c2.01,1.16,4.52-.1,4.67-2.9-.05-.2-.11-.39-.15-.59-.3-1.37-1.94-2.56-3.34-2.31-1.71.3-2.91,1.65-2.63,2.9-.23,1.32.38,2.28,1.45,2.9Z"/>
    <path class="cls-1" d="m126.19,89.29c2.01,1.16,4.52-.1,4.67-2.9-.05-.2-.11-.39-.15-.59-.3-1.37-1.94-2.56-3.34-2.31-1.71.3-2.91,1.65-2.63,2.9-.23,1.32.38,2.28,1.45,2.9Z"/>
    <path class="cls-1" d="m146.91,89.29c2.01,1.16,4.52-.1,4.67-2.9-.05-.2-.11-.39-.15-.59-.3-1.37-1.94-2.56-3.34-2.31-1.71.3-2.91,1.65-2.63,2.9-.23,1.32.38,2.28,1.45,2.9Z"/>
    <path class="cls-1" d="m153.82,89.29c2.01,1.16,4.52-.1,4.67-2.9-.05-.2-.11-.39-.15-.59-.3-1.37-1.94-2.56-3.34-2.31-1.71.3-2.91,1.65-2.63,2.9-.23,1.32.38,2.28,1.45,2.9Z"/>
    <path class="cls-1" d="m86.36,62.01c1.79.08,3.31-1.81,2.96-3.51-.34-1.69-1.4-2.39-2.96-2.61-1.99-.02-3.14,1.28-3.09,3.52.03,1.47,1.47,2.68,3.09,2.6Z"/>
    <path class="cls-1" d="m86.36,6.76c1.79.08,3.31-1.81,2.96-3.51-.34-1.69-1.4-2.39-2.96-2.61-1.99-.02-3.14,1.28-3.09,3.52.03,1.47,1.47,2.68,3.09,2.6Z"/>
    <path class="cls-1" d="m86.36,48.2c1.79.08,3.31-1.81,2.96-3.51-.34-1.69-1.4-2.39-2.96-2.61-1.99-.02-3.14,1.28-3.09,3.52.03,1.47,1.47,2.68,3.09,2.6Z"/>
    <path class="cls-1" d="m86.36,75.83c1.79.08,3.31-1.81,2.96-3.51-.34-1.69-1.4-2.39-2.96-2.61-1.99-.02-3.14,1.28-3.09,3.52.03,1.47,1.47,2.68,3.09,2.6Z"/>
    <path class="cls-1" d="m86.36,20.57c1.79.08,3.31-1.81,2.96-3.51-.34-1.69-1.4-2.39-2.96-2.61-1.99-.02-3.14,1.28-3.09,3.52.03,1.47,1.47,2.68,3.09,2.6Z"/>
    <path class="cls-1" d="m86.36,104.24c-1.99-.02-3.14,1.28-3.09,3.52.03,1.47,1.47,2.68,3.09,2.6,1.79.08,3.31-1.81,2.96-3.51-.34-1.69-1.4-2.39-2.96-2.61Z"/>
    <path class="cls-1" d="m86.36,124.96c-1.99-.02-3.14,1.28-3.09,3.52.03,1.47,1.47,2.68,3.09,2.6,1.79.08,3.31-1.81,2.96-3.51-.34-1.69-1.4-2.39-2.96-2.61Z"/>
    <path class="cls-1" d="m86.36,97.33c-1.99-.02-3.14,1.28-3.09,3.52.03,1.47,1.47,2.68,3.09,2.6,1.79.08,3.31-1.81,2.96-3.51-.34-1.69-1.4-2.39-2.96-2.61Z"/>
    <path class="cls-1" d="m86.36,166.4c-1.99-.02-3.14,1.28-3.09,3.52.03,1.47,1.47,2.68,3.09,2.6,1.67.21,3.34-1.82,2.94-3.6-.37-1.66-1.43-2.3-2.94-2.52Z"/>
    <path class="cls-1" d="m86.36,159.49c-1.99-.02-3.14,1.28-3.09,3.52.03,1.47,1.47,2.68,3.09,2.6,1.67.21,3.34-1.82,2.94-3.6-.37-1.66-1.43-2.3-2.94-2.52Z"/>
    <path class="cls-1" d="m86.36,152.59c-1.99-.02-3.14,1.28-3.09,3.52.03,1.47,1.47,2.68,3.09,2.6,1.67.21,3.34-1.82,2.94-3.6-.37-1.66-1.43-2.3-2.94-2.52Z"/>
    <path class="cls-1" d="m86.36,35.17c-1.16,0-2.15.43-2.71,1.45-.63,1.14-.66,2.33.16,3.45.64.85,1.41,1.42,2.55,1.22,1.15.05,2.07-.52,2.57-1.6.4-.56.55-1.15.43-1.85-.31-1.69-1.38-2.47-2.99-2.67Z"/>
    <path class="cls-1" d="m70.18,132.91c-.78.62-.71,1.48-.73,2.34-.02,1.74,1.99,3.44,4.08,2.6,1.99-.8,2.56-2.85,1.4-4.75-1.13-1.55-3.56-1.67-4.75-.19Z"/>
    <path class="cls-1" d="m56.36,132.91c-.78.62-.71,1.48-.73,2.34-.02,1.74,1.99,3.44,4.08,2.6,1.99-.8,2.56-2.85,1.4-4.75-1.13-1.55-3.56-1.67-4.75-.19Z"/>
    <path class="cls-1" d="m48.35,161.1s0,0,0,0c0-8.08.04-16.15-.01-24.23,0-.78-.02-1.61-.2-2.4-.62-2.67-1.78-5.05-3.9-6.85-1.94-1.66-4.18-2.67-6.75-2.88,0,0,0,0,0,0,0,0,0,0,0,0-.33-.33-.73-.14-1.11-.15,0,0,0,0,0,0H11.85s0,0,0,0c-.36,0-.73,0-1.09,0,0,0,0,0,0,0,0,0,0,0,0,0-.42.11-.84.23-1.26.33-2.89.64-5.3,2.04-7.08,4.44-1.67,2.25-2.53,4.74-2.4,7.57.09,1.81.01,3.63.02,5.45,0,6.24.02,12.47.03,18.71,0,0,0,0,0,0,0,0,0,0,0,0v1.09s0,0,0,0h0c-.01.15-.06.31-.03.45.54,2.94,1.86,5.47,4.15,7.4,2.06,1.73,4.42,2.89,7.21,2.88,1.79,0,3.57,0,5.36,0,6.6,0,13.21-.02,19.81-.03,0,0,0,0,0,0h.91c.58.14,1.11-.14,1.64-.27,2.63-.65,4.85-2.06,6.51-4.17,1.46-1.86,2.47-3.98,2.59-6.42,0,0,0,0,0,0h0c.3-.27.14-.61.14-.93,0,0,0,0,0,0Zm-6.9-4.71c.02,1.88-.25,3.76-1.32,5.4-1.37,2.09-3.16,3.58-5.71,4.05-.84.15-1.66.16-2.5.16-5.63,0-11.27.05-16.9-.02-2.52-.03-4.52-1.21-6.14-3.17-1.47-1.77-2-3.75-1.95-5.99.06-2.69.01-5.39.01-8.09,0-2.97-.03-5.94,0-8.9.03-3.12,1.54-5.42,4.11-7.09,1.52-.98,3.24-1.24,4.97-1.26,5.33-.06,10.66-.05,15.99,0,2.43.02,4.76.53,6.58,2.31,1.56,1.52,2.55,3.33,2.7,5.56.38,5.68.1,11.36.15,17.04Z"/>
    <path class="cls-1" d="m48.2,11.13s0,0,0,0c-.02-.33.01-.67-.06-.98-.63-2.7-1.81-5.11-3.97-6.91-1.93-1.6-4.13-2.66-6.68-2.82,0,0,0,0,0,0h0c-.27-.3-.61-.14-.93-.14,0,0,0,0,0,0,0,0,0,0,0,0-8.23,0-16.47-.02-24.7-.02-.71,0-1.44.07-2.13.23C6.28,1.3,3.44,3.05,1.63,6.2.77,7.68.12,9.22.06,10.97c0,0,0,0,0,0,0,0,0,0,0,0,0,.36,0,.73,0,1.1,0,0,0,0,0,0,0,0,0,0,0,0,0,.15-.03.3-.03.45,0,8.45,0,16.9,0,25.35,0,.52.08,1.07.23,1.57.94,3.08,2.59,5.64,5.42,7.35,1.57.96,3.21,1.65,5.07,1.77h0s0,0,0,0c.36,0,.73,0,1.09,0,0,0,0,0,0,0,0,0,0,0,0,0,8.02,0,16.04-.02,24.06.05,2.25.02,4.33-.44,6.25-1.55,2.88-1.67,4.76-4.14,5.69-7.35.41-1.42.51-2.87.51-4.31.02-7.78,0-15.56-.01-23.34,0,0,0,0,0,0,0,0,0,0,0,0,0-.32.16-.66-.14-.93h0Zm-6.73,20.08c0,1.58-.03,3.19-.59,4.65-1.01,2.64-2.79,4.57-5.58,5.47-1.14.37-2.29.35-3.44.35-2.57,0-5.15,0-7.72,0-2.82,0-5.64-.09-8.45.02-3.79.16-7.01-2.42-8.27-5.65-.29-.75-.49-1.56-.49-2.41.01-6.09,0-12.18,0-18.26,0-3.39,2.59-6.84,6.01-7.72,1.31-.34,2.61-.51,3.94-.51,4.66,0,9.33.01,13.99,0,1.61,0,3.23.06,4.75.58,1.88.64,3.37,1.85,4.46,3.56,1.07,1.68,1.35,3.56,1.37,5.48.05,4.81,0,9.63.02,14.44Z"/>
    <path class="cls-1" d="m34.22,17.82c-.8-2.79-2.72-3.68-5.28-3.72-3.64-.06-7.3-.26-10.94.14-2.2.25-4.16,2.35-4.16,4.46,0,3.81.02,7.63,0,11.44-.02,2.17,2.5,4.68,4.65,4.64,1.88-.03,3.75,0,5.63,0,1.57,0,3.15.02,4.72,0,.59-.01,1.18.09,1.78-.11,2.8-.91,3.86-2.92,3.93-5.68.08-3.02.04-6.05,0-9.08,0-.7-.13-1.41-.32-2.08Z"/>
    <path class="cls-1" d="m34.27,142.2c-.9-2.87-2.69-3.72-5.35-3.77-3.64-.07-7.3-.27-10.94.14-2.2.25-4.15,2.37-4.15,4.48,0,1.91,0,3.81,0,5.72s.02,3.81,0,5.72c-.03,2.17,2.51,4.65,4.66,4.63,3.75-.04,7.51,0,11.26-.02.29,0,.56-.02.87-.12,2.78-.88,3.85-2.96,3.92-5.69.07-3.02.03-6.05,0-9.08,0-.67-.08-1.38-.28-2.01Z"/>
    <path class="cls-1" d="m158.59,17.88c-.91-2.87-2.68-3.72-5.35-3.78-3.64-.07-7.3-.27-10.93.14-2.2.25-4.15,2.37-4.15,4.47v5.72c0,1.91.02,3.81,0,5.72-.03,2.17,2.51,4.65,4.66,4.63,3.75-.04,7.51,0,11.26-.02.29,0,.56-.02.87-.12,2.79-.89,3.85-2.95,3.92-5.69.07-3.02.03-6.05,0-9.08,0-.67-.07-1.38-.28-2.01Z"/>
  </g>
</svg>